<svg viewBox="0 0 128 128">
  <g fill="#3776AB"> <!-- Blue for the top part of the Python logo -->
    <path d="M63.9 1.4C39.2 1.4 35.7 15 35.7 15l.1 13.7h27.6v3.4H28.6S14.3 32.4 14.3 57.3c0 22.8 12.7 23.9 12.7 23.9h10.2v-13s-.2-12.6 12.3-12.6h28.5s12.5.3 12.5-12.8V14.4S88.2 1.4 63.9 1.4zm-8.6 10.5c2.8 0 5 2.3 5 5.1 0 2.8-2.2 5.1-5 5.1-2.7 0-5-2.3-5-5.1 0-2.8 2.3-5.1 5-5.1z"></path>
    <path d="M46.7 4.4h-.1c-.1 0-.1 0-.1.1-.1 0-.1.1-.1.1-.1.1-.1.1-.1.2 0 .1-.1.1-.1.2 0 .1-.1.1-.1.2 0 .1-.1.1-.1.2v.2c0 .1-.1.1-.1.2v.3c0 .1-.1.1-.1.2v.3c0 .1 0 .1 0 .2v.3c0 .1 0 .1 0 .2v.3c0 .1 0 .1 0 .2v.2c0 .1 0 .1.1.2s.1.1.1.2c0 .1.1.1.1.2.1 0 .1.1.1.2.1 0 .1.1.1.1s.1.1.1.1h.1c.1 0 .1.1.2.1h.2c.1 0 .1.1.2.1h.2c.1 0 .1 0 .2-.1h.2c.1 0 .1 0 .2-.1.1-.1.1-.1.2-.1.1-.1.1-.1.2-.2.1 0 .1-.1.1-.2.1-.1.1-.1.1-.2v-.2c0-.1.1-.1.1-.2v-.3c0-.1 0-.1 0-.2v-.2c0-.1 0-.1 0-.2v-.3c0-.1 0-.1 0-.2v-.2c0-.1 0-.1-.1-.2 0-.1 0-.1-.1-.2 0-.1-.1-.1-.1-.2s-.1-.1-.1-.1c0-.1-.1-.1-.1-.1-.1 0-.1-.1-.2-.1h-.1-.1z"></path>
  </g>
  <g fill="#FFD43B"> <!-- Yellow for the bottom part of the Python logo -->
    <path d="M64.1 126.6c24.7 0 28.2-13.6 28.2-13.6l-.1-13.7H64.6v-3.4h34.8s14.3 0 14.3-24.9c0-22.8-12.7-23.9-12.7-23.9H90.8v13s.2 12.6-12.3 12.6H50s-12.5-.3-12.5 12.8v30.5s3.5 13 27.8 13zM72.6 115.6c-2.8 0-5-2.3-5-5.1 0-2.8 2.2-5.1 5-5.1 2.7 0 5 2.3 5 5.1 0 2.8-2.3 5.1-5 5.1z"></path>
    <path d="M81.5 123.6h.1c.1 0 .1 0 .1-.1.1 0 .1-.1.1-.1.1-.1.1-.1.1-.2 0-.1.1-.1.1-.2s.1-.1.1-.2v-.2c0-.1.1-.1.1-.2v-.3c0-.1.1-.1.1-.2v-.3c0-.1 0-.1 0-.2v-.3c0-.1 0-.1 0-.2v-.2c0-.1 0-.1-.1-.2s-.1-.1-.1-.2c0-.1-.1-.1-.1-.2-.1 0-.1-.1-.1-.2-.1 0-.1-.1-.1-.1s-.1-.1-.1-.1h-.1c-.1 0-.1-.1-.2-.1h-.2c-.1 0-.1-.1-.2-.1h-.2c-.1 0-.1 0-.2.1h-.2c-.1 0-.1 0-.2.1-.1.1-.1.1-.2.1-.1.1-.1.1-.2.2-.1 0-.1.1-.1.2-.1.1-.1.1-.1.2v.2c0 .1-.1.1-.1.2v.3c0 .1 0 .1 0 .2v.2c0 .1 0 .1 0 .2v.3c0 .1 0 .1 0 .2v.2c0 .1 0 .1.1.2 0 .1 0 .1.1.2 0 .1.1.1.1.2s.1.1.1.1c0 .1.1.1.1.1.1 0 .1.1.2.1h.1.1z"></path>
  </g>
</svg>
